<?xml version="1.0" standalone="no"?>
<!DOCTYPE svg PUBLIC "-//W3C//DTD SVG 20010904//EN"
 "http://www.w3.org/TR/2001/REC-SVG-20010904/DTD/svg10.dtd">
<svg version="1.0" xmlns="http://www.w3.org/2000/svg"
 width="319.000000pt" height="319.000000pt" viewBox="0 0 319.000000 319.000000"
 preserveAspectRatio="xMidYMid meet">

<g transform="translate(0.000000,319.000000) scale(0.100000,-0.100000)"
fill="#000000" stroke="none">
<path d="M1575 2231 c-7 -24 3 -49 26 -62 11 -5 19 -16 19 -24 0 -18 -12 -19
-28 -3 -15 15 -24 6 -16 -16 8 -22 53 -18 68 6 8 14 5 23 -17 46 -27 28 -35
52 -18 52 5 0 11 -6 14 -12 2 -7 8 -10 12 -6 4 4 5 14 2 23 -9 22 -54 19 -62
-4z"/>
<path d="M1446 2208 c-3 -18 -8 -50 -11 -70 -6 -39 2 -47 23 -26 10 10 17 10
31 1 29 -18 30 -7 8 63 -23 70 -43 83 -51 32z m34 -49 c0 -5 -4 -9 -10 -9 -5
0 -10 7 -10 16 0 8 5 12 10 9 6 -3 10 -10 10 -16z"/>
<path d="M1303 2223 c-27 -5 -29 -12 -8 -27 8 -6 19 -33 24 -59 5 -26 11 -51
15 -54 15 -15 18 10 8 59 -9 43 -8 55 3 64 8 6 12 14 8 17 -7 7 -13 7 -50 0z"/>
<path d="M1804 2165 c-6 -36 -8 -68 -5 -70 8 -9 60 -5 66 4 3 5 9 30 14 56 10
52 -3 75 -43 75 -20 0 -24 -7 -32 -65z m49 -11 c-12 -53 -36 -59 -28 -8 10 61
14 69 27 56 7 -7 7 -23 1 -48z"/>
<path d="M1182 2192 c-32 -5 -37 -24 -22 -80 18 -66 25 -73 61 -60 35 12 39
33 5 24 -17 -4 -26 -1 -31 11 -3 10 -1 19 4 21 16 5 13 22 -3 22 -24 0 -26 28
-3 43 26 17 21 24 -11 19z"/>
<path d="M1946 2142 c-9 -32 -16 -62 -16 -65 0 -13 53 -28 63 -18 5 5 1 12
-12 16 -27 8 -27 33 0 43 18 7 19 10 5 21 -22 19 -9 42 20 35 13 -3 24 -2 24
4 0 9 -32 22 -56 22 -6 0 -19 -26 -28 -58z"/>
<path d="M1024 2135 c-16 -11 -16 -17 -6 -53 7 -22 20 -50 30 -62 16 -19 22
-21 40 -11 22 12 31 51 12 51 -5 0 -10 -7 -10 -15 0 -30 -27 -14 -43 25 -16
41 -11 55 17 44 10 -4 16 -1 16 9 0 20 -35 28 -56 12z"/>
<path d="M2165 2074 c-31 -71 -31 -80 1 -88 33 -9 43 0 20 17 -16 12 -16 15 3
61 24 54 26 66 11 66 -6 0 -21 -25 -35 -56z"/>
<path d="M895 2076 c-19 -14 -19 -16 10 -75 16 -34 30 -61 32 -61 16 0 62 33
58 40 -4 7 -13 6 -25 0 -20 -11 -50 13 -30 25 17 10 11 25 -10 25 -24 0 -26
17 -3 42 13 15 14 18 1 18 -8 0 -23 -6 -33 -14z"/>
<path d="M2292 2011 c-46 -55 -55 -79 -22 -61 17 9 22 7 30 -15 5 -14 12 -25
14 -25 8 0 45 133 40 142 -10 15 -21 8 -62 -41z m20 -33 c-7 -7 -12 -8 -12 -2
0 6 3 14 7 17 3 4 9 5 12 2 2 -3 -1 -11 -7 -17z"/>
<path d="M763 2003 c-7 -2 -13 -10 -13 -16 0 -20 70 -118 80 -112 6 4 3 16 -6
31 -19 28 -13 30 22 8 32 -22 46 -8 17 16 -13 10 -23 27 -23 37 0 35 -37 53
-77 36z m47 -33 c0 -11 -4 -20 -10 -20 -5 0 -10 2 -10 4 0 2 -3 11 -6 20 -4
11 -1 16 10 16 9 0 16 -8 16 -20z"/>
<path d="M1134 1776 c-3 -8 -4 -31 -2 -52 2 -32 7 -40 26 -42 12 -2 22 1 22 7
0 6 -7 11 -15 11 -18 0 -20 26 -2 33 10 4 10 6 0 6 -19 1 -16 31 3 31 8 0 12
5 9 10 -9 15 -35 12 -41 -4z"/>
<path d="M1250 1775 c-11 -13 -9 -20 9 -38 27 -30 27 -40 -1 -32 -22 7 -22 6
-5 -11 16 -17 18 -17 34 -1 16 16 16 18 -5 40 -28 30 -28 40 0 31 20 -6 21 -5
9 10 -17 20 -25 20 -41 1z"/>
<path d="M1365 1780 c-3 -5 -1 -10 4 -10 6 0 11 -18 11 -40 0 -22 5 -40 10
-40 6 0 10 15 10 34 0 19 3 41 6 50 4 11 0 16 -14 16 -12 0 -24 -4 -27 -10z"/>
<path d="M1487 1783 c-4 -3 -7 -26 -7 -50 0 -31 5 -45 16 -50 20 -8 44 21 44
53 0 34 -36 65 -53 47z m33 -48 c0 -13 -4 -27 -10 -30 -6 -4 -10 8 -10 30 0
22 4 34 10 30 6 -3 10 -17 10 -30z"/>
<path d="M1688 1773 c-11 -15 -11 -16 5 -10 21 8 23 -19 2 -47 -17 -22 -11
-36 16 -36 21 0 26 16 7 23 -10 4 -10 7 0 18 16 18 15 56 -2 62 -8 3 -20 -2
-28 -10z"/>
<path d="M1800 1771 c-14 -27 -13 -54 4 -76 12 -16 16 -17 30 -6 28 23 16 101
-16 101 -4 0 -12 -9 -18 -19z m30 -36 c0 -19 -4 -35 -10 -35 -5 0 -10 16 -10
35 0 19 5 35 10 35 6 0 10 -16 10 -35z"/>
<path d="M1918 1773 c-11 -15 -11 -16 5 -10 21 8 23 -19 2 -47 -17 -22 -11
-36 16 -36 21 0 26 16 7 23 -10 4 -10 7 0 18 16 18 15 56 -2 62 -8 3 -20 -2
-28 -10z"/>
<path d="M2043 1783 c-7 -3 -13 -12 -13 -20 0 -13 3 -13 15 -3 20 17 20 -7 0
-34 -8 -11 -15 -26 -15 -33 0 -15 36 -18 45 -3 3 6 -1 10 -9 10 -13 0 -13 4 2
30 15 26 15 31 2 43 -8 8 -21 13 -27 10z"/>
<path d="M1249 1569 c-27 -28 -101 -120 -164 -204 -63 -84 -121 -157 -127
-162 -7 -6 -42 -20 -78 -32 -87 -28 -183 -86 -231 -139 -35 -38 -40 -48 -37
-85 2 -33 8 -44 29 -56 24 -13 31 -13 66 3 45 20 116 85 218 198 68 76 72 78
130 87 33 5 63 6 68 2 4 -4 -2 -33 -13 -65 -27 -79 -36 -152 -21 -170 22 -26
41 -7 41 39 0 49 32 159 55 193 9 12 34 31 56 43 42 21 44 43 3 33 -13 -3 -24
-4 -24 -1 0 3 33 67 74 144 82 152 94 186 76 208 -26 31 -68 18 -121 -36z m81
-1 c0 -16 -167 -323 -183 -336 -7 -6 -36 -14 -65 -18 -42 -5 -52 -4 -52 8 0
18 166 243 227 309 44 47 73 62 73 37z m-422 -436 c-70 -98 -196 -212 -234
-212 -32 0 -37 14 -21 52 23 56 100 116 202 160 55 23 70 23 53 0z"/>
<path d="M2246 1557 c-34 -36 -114 -192 -141 -275 -30 -90 -149 -172 -206
-142 -33 18 -18 39 46 65 66 27 95 55 95 91 0 31 -33 48 -76 39 -41 -7 -104
-68 -149 -141 -30 -49 -90 -98 -106 -88 -18 10 -8 41 32 108 37 62 44 96 20
96 -6 0 -39 -44 -74 -98 -63 -96 -110 -146 -131 -139 -23 8 -15 45 24 111 44
75 49 96 22 96 -11 0 -32 -24 -57 -67 -63 -108 -97 -132 -88 -64 7 52 -21 81
-77 81 -22 0 -40 4 -40 9 0 6 23 29 50 52 81 69 113 136 73 157 -27 14 -60 -3
-86 -45 -46 -74 -208 -417 -203 -430 9 -23 33 -3 56 48 l24 49 12 -30 c19 -44
53 -56 98 -35 20 10 44 30 53 46 21 35 66 40 83 9 15 -28 54 -25 107 6 39 23
48 24 73 14 35 -15 62 -7 105 32 l35 30 26 -21 c46 -36 130 -24 196 29 l38 31
12 -26 c17 -37 63 -34 120 9 44 34 45 34 61 15 23 -26 55 -24 99 6 44 29 46
30 69 9 28 -26 72 -9 134 52 30 30 55 59 55 64 0 22 -28 8 -70 -35 -48 -49
-80 -58 -80 -25 0 23 23 73 51 109 10 13 17 27 14 31 -2 4 -30 10 -62 13 -73
8 -110 -9 -166 -75 -132 -157 -179 -190 -185 -134 -5 43 14 78 103 193 80 101
105 149 97 186 -6 29 -51 21 -86 -16z m54 -26 c0 -17 -84 -134 -88 -123 -4 14
66 132 79 132 5 0 9 -4 9 -9z m-850 -131 c0 -5 -13 -24 -30 -42 -34 -38 -40
-21 -9 23 20 29 39 38 39 19z m1006 -35 c10 -25 -15 -72 -62 -115 -51 -47 -84
-53 -84 -15 0 50 36 98 95 129 37 20 44 20 51 1z m-456 -89 c0 -14 -74 -56
-98 -56 -21 0 -13 18 21 44 35 28 77 34 77 12z m-592 -120 c-3 -29 -5 -31 -39
-28 -20 1 -48 -2 -63 -7 -35 -14 -33 -1 7 36 53 52 100 51 95 -1z m-32 -68 c9
-14 -31 -48 -57 -48 -25 0 -35 26 -19 45 15 18 66 20 76 3z"/>
</g>
</svg>
